REM MD5 557e55f0769fbe5d97b4c9d7dc09712d
FILE "Baphomets Fluch II - Die Spiegel der Finsternis (Germany).bin" BINARY
  TRACK 01 MODE2/2352
    INDEX 01 00:00:00
  TRACK 02 AUDIO
    INDEX 00 55:53:55
    INDEX 01 55:55:55
  TRACK 03 AUDIO
    INDEX 00 58:33:60
    INDEX 01 58:35:60
REM LEADOUT 61:53:16
